<svg width="261" height="163" viewBox="0 0 261 163" fill="none" xmlns="http://www.w3.org/2000/svg">
    <path
        d="M208.674 116.856C209.25 116.942 209.83 116.998 210.412 117.022C210.741 117.045 211.072 116.996 211.381 116.877C211.553 116.594 211.553 116.594 211.443 116.334C211.333 116.074 210.833 115.384 210.345 114.738L209.561 113.759L209.281 113.589L208.289 112.638L205.499 109.666L182.249 87.297C174.356 79.6764 166.139 72.4003 158.434 64.4691L145.032 50.5995C139.384 45.066 134.177 39.0952 129.458 32.7413L127.978 29.9465C127.466 29.1305 127.077 28.2423 126.822 27.3104C126.324 25.8925 126.026 24.4097 125.938 22.9053C125.809 21.6931 125.758 20.4733 125.783 19.2531C125.719 18.9234 125.754 18.5814 125.883 18.2696C126.092 17.8538 126.401 17.4966 126.782 17.2308C127.334 16.8138 127.933 16.4636 128.565 16.1875C131.508 14.9493 134.638 14.2344 137.816 14.0752C142.905 14.0686 147.972 14.6564 152.915 15.8268C158.487 16.9316 164.102 18.2173 169.783 19.5823L176.458 21.203L181.349 22.3577L202.198 27.566C218.792 31.7733 235.535 35.1045 252.064 38.5372C262.667 40.6894 273.37 42.5534 284.003 44.5304C289.305 45.6385 294.624 46.7184 299.96 47.77L307.86 49.5169C310.499 50.1539 313.044 51.1977 315.635 52.0381C321.95 54.252 320.799 57.3426 314.406 60.8044C310.377 63.0995 305.993 64.686 301.443 65.4948C295.656 66.537 289.744 66.5915 283.956 65.6562C272.847 63.8934 261.82 61.8706 250.851 59.6896C245.38 58.6076 239.899 57.4804 234.469 56.2685L218.176 52.3217C207.379 49.6265 196.602 46.8146 185.844 43.8858L169.754 39.4814C169.502 39.3284 168.917 39.2823 168.906 39.2371L167.564 38.4211L165.395 37.4513C163.288 36.5971 161.089 35.987 158.84 35.6328C158.617 35.4968 158.2 35.5527 157.978 35.7277C157.757 35.9026 158.121 36.1236 158.192 36.3216L159.019 37.4816C159.613 38.2683 160.281 39.0607 160.92 39.8361L163.254 42.2986L166.129 45.1293L180.799 58.8029C191.021 68.2641 201.502 77.6126 211.966 86.9893L230.273 103.376C234.403 106.925 238.337 110.697 242.058 114.677C244.325 117.773 246.218 121.131 247.698 124.68C247.955 125.453 248.167 126.24 248.333 127.038C248.632 127.981 248.57 129.004 248.158 129.909C246.872 132.02 244.995 133.705 242.764 134.752C240.426 136.018 237.944 136.991 235.374 137.647C228.924 139.089 222.34 139.797 215.745 139.756C214.017 139.827 212.239 139.79 210.5 139.816C208.76 139.842 206.724 139.726 205.813 139.713L198.754 139.29C194.007 139.035 189.283 138.678 184.497 138.36C156.196 135.447 128.122 130.745 100.44 124.281C79.0343 119.547 57.8998 115.248 36.8621 109.152C32.2661 107.828 27.6683 106.696 23.0806 105.107C16.9227 103.369 11.1068 100.605 5.87363 96.9302C4.4144 95.6509 3.20993 94.1054 2.32292 92.3743C1.59188 90.6974 1.11092 88.9196 0.895446 87.0978C0.554412 85.5695 0.319783 84.0184 0.193255 82.4556C0.255035 80.2113 2.27022 79.0384 6.16894 78.0434C11.2393 77.0344 16.4729 77.3752 21.3485 79.032C57.6075 88.6946 95.5104 99.4337 134.263 106.822C148.643 109.567 163.116 111.906 177.527 113.781C184.7 114.583 191.942 115.272 199.287 115.791L204.793 116.121L207.465 116.198L207.661 116.317L208.268 116.454L208.674 116.856Z"
        fill="#073228" fill-opacity="0.15" />
    <path
        d="M260.116 7.77444C263.384 9.15204 266.732 10.3348 270.143 11.3165C271.377 11.6801 272.717 11.682 273.979 12.0626C278.469 13.2449 282.988 14.9474 287.649 16.0395C289.709 16.5145 291.797 16.8667 293.902 17.0943C296.665 17.226 299.375 17.8761 301.891 19.011C302.646 19.47 302.199 20.8996 301.153 22.4301C300.264 23.9037 298.801 24.9381 297.124 25.2791C291.728 25.4345 286.339 24.9255 281.077 23.7636C277.765 22.9108 274.341 23.1885 270.947 22.5957C267.554 22.0029 263.477 21.149 259.761 20.2053C257.505 19.5688 255.249 18.9324 252.971 18.2056C249.571 17.1831 246.23 15.8102 242.819 14.7425C240.159 14.015 237.297 13.7452 234.426 13.238C233.792 13.0844 233.134 13.0326 232.534 12.8225C230.336 12.0279 230.128 10.8574 231.581 7.33194C232.028 6.59767 232.222 5.71041 232.63 4.91389C233.377 2.69432 235.235 1.02797 237.513 0.534069C242.052 0.763749 246.493 1.89815 250.576 3.8713C253.648 5.11942 256.668 6.45228 260.1 7.61048L260.116 7.77444Z"
        fill="#073228" fill-opacity="0.15" />
    <path
        d="M72.3628 157.181C69.7476 156.442 67.1687 155.455 64.5446 154.479L56.7951 151.663C54.8938 151.011 52.8704 150.748 50.9755 150.021C44.3098 147.439 37.6912 144.654 31.1628 141.846C28.2483 140.655 25.2008 139.808 22.2157 138.922C20.3487 138.213 18.4239 137.662 16.5633 136.879C14.7143 136.026 12.9692 134.966 11.361 133.717C10.2702 133.054 11.1494 131.229 12.8309 129.66C14.5344 127.837 16.8733 126.747 19.35 126.622L25.0355 127.603C26.9343 127.945 28.8312 128.479 30.7001 128.996C34.5096 130.028 38.2438 131.316 41.8778 132.851C46.5004 134.362 51.2716 135.382 56.1138 135.896L72.0357 139.192C75.3476 140.045 78.6252 140.954 81.8036 141.648C86.7561 142.763 91.7564 144.178 96.7643 144.824C100.769 145.102 104.79 145.118 108.802 144.87C109.713 144.882 110.627 144.703 111.487 144.8C114.764 145.206 115.509 146.626 115.038 151.561C114.925 152.691 114.858 153.81 114.672 154.935C114.524 158.076 112.539 160.847 109.616 161.994C102.497 163.249 95.2099 163.007 88.2147 161.285C82.929 160.277 77.7158 158.771 72.3246 157.622L72.3628 157.181Z"
        fill="#073228" fill-opacity="0.15" />
</svg>