<svg width="333" height="175" viewBox="0 0 333 175" fill="none" xmlns="http://www.w3.org/2000/svg">
<path d="M210.674 122.856C211.25 122.942 211.83 122.998 212.412 123.022C212.741 123.045 213.072 122.996 213.381 122.877C213.553 122.594 213.553 122.594 213.443 122.334C213.333 122.074 212.833 121.384 212.345 120.738L211.561 119.759L211.281 119.589L210.289 118.638L207.499 115.666L184.249 93.297C176.356 85.6764 168.139 78.4003 160.434 70.4691L147.032 56.5995C141.384 51.066 136.177 45.0952 131.458 38.7413L129.978 35.9465C129.466 35.1305 129.077 34.2423 128.822 33.3104C128.324 31.8925 128.026 30.4097 127.938 28.9053C127.809 27.6931 127.758 26.4733 127.783 25.2532C127.719 24.9234 127.754 24.5814 127.883 24.2696C128.092 23.8538 128.401 23.4966 128.782 23.2308C129.334 22.8138 129.933 22.4636 130.565 22.1875C133.508 20.9493 136.638 20.2344 139.816 20.0752C144.905 20.0686 149.972 20.6564 154.915 21.8269C160.487 22.9316 166.102 24.2173 171.783 25.5823L178.458 27.203L183.349 28.3577L204.198 33.566C220.792 37.7733 237.535 41.1045 254.064 44.5372C264.667 46.6894 275.37 48.5534 286.003 50.5304C291.305 51.6385 296.624 52.7184 301.96 53.77L309.86 55.5169C312.499 56.1539 315.044 57.1977 317.635 58.0381C323.95 60.252 322.799 63.3426 316.406 66.8044C312.378 69.0995 307.993 70.686 303.443 71.4948C297.656 72.537 291.744 72.5915 285.956 71.6562C274.847 69.8934 263.82 67.8706 252.851 65.6896C247.38 64.6076 241.899 63.4804 236.469 62.2685L220.176 58.3217C209.379 55.6265 198.602 52.8146 187.844 49.8858L171.754 45.4814C171.502 45.3284 170.917 45.2823 170.906 45.2371L169.564 44.4211L167.395 43.4513C165.288 42.5971 163.089 41.9871 160.84 41.6328C160.617 41.4968 160.2 41.5527 159.978 41.7277C159.757 41.9026 160.121 42.1236 160.192 42.3216L161.019 43.4817C161.613 44.2683 162.281 45.0607 162.92 45.8361L165.254 48.2986L168.129 51.1293L182.799 64.8029C193.021 74.2641 203.502 83.6126 213.966 92.9893L232.273 109.376C236.403 112.925 240.337 116.697 244.058 120.677C246.325 123.773 248.218 127.131 249.698 130.68C249.955 131.453 250.167 132.24 250.333 133.038C250.632 133.981 250.57 135.004 250.158 135.909C248.872 138.02 246.995 139.705 244.764 140.752C242.426 142.018 239.944 142.991 237.373 143.647C230.924 145.089 224.34 145.797 217.745 145.756C216.017 145.827 214.239 145.79 212.5 145.816C210.76 145.842 208.724 145.726 207.813 145.713L200.754 145.29C196.007 145.035 191.283 144.678 186.497 144.36C158.196 141.447 130.122 136.745 102.44 130.281C81.0343 125.547 59.8998 121.248 38.8621 115.152C34.2661 113.828 29.6683 112.696 25.0806 111.107C18.9227 109.369 13.1068 106.605 7.87362 102.93C6.4144 101.651 5.20992 100.105 4.32291 98.3743C3.59187 96.6974 3.11091 94.9196 2.89544 93.0978C2.55441 91.5696 2.31978 90.0184 2.19325 88.4556C2.25503 86.2114 4.27022 85.0384 8.16894 84.0434C13.2393 83.0344 18.4729 83.3752 23.3485 85.032C59.6075 94.6946 97.5104 105.434 136.263 112.822C150.643 115.567 165.116 117.906 179.527 119.781C186.7 120.583 193.942 121.272 201.287 121.791L206.793 122.121L209.465 122.198L209.661 122.317L210.268 122.454L210.674 122.856Z" fill="#073228" fill-opacity="0.15"/>
<path d="M262.116 13.7744C265.384 15.152 268.732 16.3348 272.143 17.3165C273.377 17.6801 274.717 17.682 275.979 18.0626C280.469 19.2449 284.988 20.9474 289.649 22.0395C291.709 22.5145 293.798 22.8668 295.902 23.0943C298.665 23.226 301.375 23.8761 303.891 25.011C304.646 25.47 304.199 26.8996 303.153 28.4301C302.264 29.9037 300.801 30.9381 299.124 31.2791C293.728 31.4345 288.339 30.9255 283.077 29.7636C279.765 28.9108 276.341 29.1885 272.947 28.5957C269.554 28.0029 265.477 27.149 261.761 26.2053C259.505 25.5689 257.249 24.9324 254.971 24.2056C251.571 23.1831 248.23 21.8102 244.819 20.7425C242.159 20.015 239.297 19.7452 236.426 19.238C235.792 19.0844 235.134 19.0326 234.534 18.8225C232.336 18.0279 232.128 16.8574 233.581 13.3319C234.028 12.5977 234.222 11.7104 234.63 10.9139C235.377 8.69432 237.235 7.02797 239.513 6.53407C244.052 6.76375 248.493 7.89816 252.576 9.8713C255.648 11.1194 258.668 12.4523 262.1 13.6105L262.116 13.7744Z" fill="#073228" fill-opacity="0.15"/>
<path d="M74.3628 163.181C71.7476 162.442 69.1687 161.455 66.5446 160.479L58.7951 157.663C56.8938 157.011 54.8704 156.748 52.9755 156.021C46.3098 153.439 39.6912 150.654 33.1628 147.846C30.2482 146.655 27.2008 145.808 24.2157 144.922C22.3487 144.213 20.4239 143.662 18.5632 142.879C16.7143 142.026 14.9692 140.966 13.361 139.717C12.2701 139.054 13.1494 137.229 14.8309 135.66C16.5344 133.837 18.8733 132.747 21.35 132.622L27.0355 133.603C28.9343 133.945 30.8312 134.479 32.7001 134.996C36.5096 136.028 40.2438 137.316 43.8778 138.851C48.5004 140.362 53.2716 141.382 58.1138 141.896L74.0357 145.192C77.3476 146.045 80.6251 146.954 83.8035 147.648C88.7561 148.763 93.7564 150.178 98.7643 150.824C102.769 151.102 106.79 151.118 110.802 150.87C111.713 150.882 112.627 150.703 113.487 150.8C116.764 151.206 117.509 152.626 117.038 157.561C116.925 158.691 116.858 159.81 116.672 160.935C116.524 164.076 114.539 166.847 111.616 167.994C104.497 169.249 97.2099 169.007 90.2147 167.285C84.929 166.277 79.7158 164.771 74.3246 163.622L74.3628 163.181Z" fill="#073228" fill-opacity="0.15"/>
</svg>
